# Blender 3.5.1
# www.blender.org
mtllib pillar.mtl
o Base
v 0.471057 1.300000 -0.471057
v 0.471057 0.000000 -0.471057
v 0.471057 1.300000 0.471057
v 0.471057 0.000000 0.471057
v -0.471057 1.300000 -0.471057
v -0.471057 0.000000 -0.471057
v -0.471057 1.300000 0.471057
v -0.471057 0.000000 0.471057
vn -0.0000 1.0000 -0.0000
vn -0.0000 -0.0000 1.0000
vn -1.0000 -0.0000 -0.0000
vn -0.0000 -1.0000 -0.0000
vn 1.0000 -0.0000 -0.0000
vn -0.0000 -0.0000 -1.0000
vt 0.720864 0.000000
vt 0.548652 0.886970
vt 0.765865 0.644797
vt 0.548652 0.693520
vt 0.937645 0.719613
vt 0.765865 0.451348
vt 0.720864 0.140193
vt 0.140193 0.881045
vt 0.408459 0.886970
vt 0.140193 0.687595
vt 0.937645 0.859807
vt 0.408459 0.693520
vt 0.861057 0.000000
vt 0.268265 0.886970
vt 0.906058 0.644797
vt 0.797452 0.719613
vt 0.906058 0.451348
vt 0.268265 0.693520
vt 0.861057 0.140193
vt 0.000000 0.881045
vt 0.408459 0.886970
vt 0.408459 0.693520
vt 0.000000 0.687595
vt 0.797452 0.859807
s 0
usemtl Material
f 5/13/1 3/7/1 1/1/1
f 3/8/2 8/23/2 4/10/2
f 7/21/3 6/18/3 8/22/3
f 2/5/4 8/24/4 6/16/4
f 1/2/5 4/12/5 2/4/5
f 5/15/6 2/6/6 6/17/6
f 5/13/1 7/19/1 3/7/1
f 3/8/2 7/20/2 8/23/2
f 7/21/3 5/14/3 6/18/3
f 2/5/4 4/11/4 8/24/4
f 1/2/5 3/9/5 4/12/5
f 5/15/6 1/3/6 2/6/6
o Middle
v 0.471057 1.300000 -0.471057
v 0.471057 1.300000 0.471057
v -0.471057 1.300000 -0.471057
v -0.471057 1.300000 0.471057
v 0.471057 3.015097 0.471057
v -0.471057 3.015097 0.471057
v 0.471057 3.015097 -0.471057
v -0.471057 3.015097 -0.471057
vn -0.0000 -1.0000 -0.0000
vn -0.0000 1.0000 -0.0000
vn -0.0000 -0.0000 -1.0000
vn 1.0000 -0.0000 -0.0000
vn -1.0000 -0.0000 -0.0000
vn -0.0000 -0.0000 1.0000
vt 0.797452 0.859807
vt 0.268265 0.000000
vt 0.408459 0.255219
vt 0.268265 0.255219
vt 0.797452 1.000000
vt 0.548652 0.255219
vt 0.657259 0.859807
vt 0.408459 0.000000
vt 0.408459 0.255219
vt 0.657259 1.000000
vt 0.548652 0.000000
vt 0.797452 1.000000
vt 0.268265 0.510438
vt 0.548652 0.510438
vt 0.937645 1.000000
vt 0.548652 0.255219
vt 0.408459 0.510438
vt 0.797452 0.859807
vt 0.268265 0.255219
vt 0.408459 0.510438
vt 0.937645 0.859807
vt 0.408459 0.255219
s 0
usemtl Material
f 10/29/7 11/31/7 9/25/7
f 16/45/8 13/36/8 15/42/8
f 11/32/9 15/43/9 9/26/9
f 9/27/10 13/37/10 10/28/10
f 12/35/11 16/46/11 11/32/11
f 10/30/12 14/41/12 12/33/12
f 10/29/7 12/34/7 11/31/7
f 16/45/8 14/39/8 13/36/8
f 11/32/9 16/46/9 15/43/9
f 9/27/10 15/44/10 13/37/10
f 12/35/11 14/40/11 16/46/11
f 10/30/12 13/38/12 14/41/12
o Top
v 0.471057 3.015097 0.471057
v -0.471057 3.015097 0.471057
v 0.471057 3.015097 -0.471057
v -0.471057 3.015097 -0.471057
v 0.471057 5.021512 0.471057
v -0.471057 5.021512 0.471057
v 0.471057 5.021512 -0.471057
v -0.471057 5.021512 -0.471057
v 0.901385 5.021512 0.901385
v -0.901385 5.021512 0.901385
v 0.901385 5.021512 -0.901385
v -0.901385 5.021512 -0.901385
v -0.686221 4.270708 -0.686221
v -0.471057 4.055543 -0.471057
v -0.578639 4.241881 -0.578639
v -0.499883 4.163126 -0.499884
v 0.471057 4.055543 -0.471057
v 0.499884 4.163126 -0.499883
v 0.578639 4.241881 -0.578639
v 0.471057 4.055543 0.471057
v 0.499883 4.163126 0.499884
v 0.578639 4.241881 0.578639
v -0.686221 4.270708 0.686221
v -0.471057 4.055543 0.471057
v -0.578639 4.241881 0.578639
v -0.499884 4.163126 0.499883
v -0.901385 4.485872 -0.901385
v -0.872559 4.378290 -0.872559
v -0.793803 4.299534 -0.793803
v -0.901385 4.485872 0.901385
v -0.872559 4.378290 0.872559
v -0.793803 4.299534 0.793803
v 0.686221 4.270708 -0.686221
v 0.901385 4.485872 -0.901385
v 0.793803 4.299534 -0.793803
v 0.872559 4.378290 -0.872559
v 0.686221 4.270708 0.686221
v 0.901385 4.485872 0.901385
v 0.793803 4.299534 0.793803
v 0.872559 4.378290 0.872559
vn -0.0000 -1.0000 -0.0000
vn -0.0000 1.0000 -0.0000
vn -0.0000 -0.0000 1.0000
vn -1.0000 -0.0000 -0.0000
vn -0.0000 -0.0000 -1.0000
vn 1.0000 -0.0000 -0.0000
vn -0.0000 -0.9659 0.2588
vn -0.0000 -0.7071 0.7071
vn -0.0000 -0.2588 0.9659
vn -0.2588 -0.9659 -0.0000
vn -0.7071 -0.7071 -0.0000
vn -0.9659 -0.2588 -0.0000
vn 0.2588 -0.9659 -0.0000
vn 0.7071 -0.7071 -0.0000
vn 0.9659 -0.2588 -0.0000
vn -0.0000 -0.9659 -0.2588
vn -0.0000 -0.7071 -0.7071
vn -0.0000 -0.2588 -0.9659
vt 0.456486 0.510438
vt 0.797452 0.859807
vt 0.156202 0.504513
vt 0.016009 0.504513
vt 0.657259 0.859807
vt 0.424468 0.510438
vt 0.797452 0.719613
vt 0.564662 0.000000
vt 0.596679 0.510438
vt 0.284274 0.510438
vt 0.657259 0.719613
vt 0.704855 0.000000
vt 0.064036 0.204229
vt 0.204229 0.204229
vt 0.064036 0.064036
vt 0.204229 0.064036
vt 0.657259 0.451348
vt 0.765865 0.183082
vt 0.000000 0.268265
vt 0.548652 0.451348
vt 0.657259 0.183082
vt 0.268265 0.268265
vt 0.657259 0.451348
vt 0.765865 0.451348
vt 0.000000 0.000000
vt 0.548652 0.183082
vt 0.657259 0.719613
vt 0.268265 0.000000
vt 0.016009 0.284274
vt 0.284274 0.663939
vt 0.704855 0.153501
vt 0.720864 0.183082
vt 0.268265 0.693520
vt 0.032018 0.300283
vt 0.279985 0.680371
vt 0.709145 0.169933
vt 0.596679 0.663939
vt 0.564662 0.153501
vt 0.600969 0.680371
vt 0.560372 0.169933
vt 0.612688 0.693520
vt 0.204229 0.300284
vt 0.548653 0.183082
vt 0.156202 0.658014
vt 0.456486 0.663939
vt 0.160492 0.674446
vt 0.452196 0.680371
vt 0.172211 0.687595
vt 0.204229 0.472495
vt 0.440477 0.693520
vt 0.016009 0.488504
vt 0.424468 0.663939
vt 0.016009 0.658014
vt 0.440477 0.693520
vt 0.000000 0.687595
vt 0.032018 0.472495
vt 0.011719 0.674446
vt 0.428758 0.680371
vt 0.736284 0.719613
vt 0.627678 0.183082
vt 0.644110 0.187372
vt 0.752716 0.715323
vt 0.657258 0.199091
vt 0.765865 0.703604
vt 0.000000 0.268265
vt 0.627678 0.451348
vt 0.736284 0.183082
vt 0.752716 0.187372
vt 0.644110 0.447058
vt 0.765865 0.199091
vt 0.657258 0.435339
vt 0.000000 0.504513
vt 0.220238 0.284274
vt 0.844890 0.451348
vt 0.736284 0.451348
vt 0.874471 0.435339
vt 0.765865 0.467357
vt 0.236247 0.268266
vt 0.861322 0.447058
vt 0.752716 0.455637
vt 0.220238 0.488504
vt 0.736284 0.451348
vt 0.844890 0.183082
vt 0.765865 0.435339
vt 0.874471 0.199091
vt 0.236247 0.504513
vt 0.752716 0.447058
vt 0.861322 0.187372
s 0
usemtl Material
f 17/48/13 20/57/13 19/53/13
f 24/62/14 21/59/14 23/61/14
f 17/49/15 40/99/15 18/50/15
f 23/61/14 28/74/14 24/62/14
f 22/60/14 25/65/14 21/59/14
f 46/112/16 28/72/16 43/106/16
f 54/128/15 26/67/15 46/113/15
f 43/105/17 27/69/17 50/121/17
f 50/120/18 25/64/18 54/129/18
f 21/59/14 27/71/14 23/61/14
f 18/52/16 30/76/16 20/56/16
f 19/55/18 36/91/18 17/47/18
f 24/62/14 26/68/14 22/60/14
f 39/97/19 38/95/19 53/127/19
f 41/101/20 37/92/20 38/94/20
f 37/92/21 40/99/21 36/90/21
f 29/75/22 41/102/22 39/97/22
f 31/79/23 42/104/23 41/100/23
f 42/104/24 30/76/24 40/98/24
f 53/127/25 35/88/25 49/119/25
f 38/96/26 34/85/26 35/87/26
f 34/85/27 36/91/27 33/83/27
f 49/119/28 31/80/28 29/75/28
f 35/89/29 32/82/29 31/78/29
f 32/82/30 33/84/30 30/77/30
f 46/113/21 56/133/21 54/128/21
f 47/114/20 55/130/20 56/133/20
f 55/132/19 39/97/19 53/127/19
f 43/106/24 47/115/24 46/112/24
f 44/107/23 48/117/23 47/115/23
f 48/118/22 29/75/22 39/97/22
f 54/129/27 52/125/27 50/120/27
f 56/134/26 51/122/26 52/125/26
f 51/124/25 53/127/25 49/119/25
f 50/121/30 44/108/30 43/105/30
f 52/126/29 45/110/29 44/108/29
f 45/111/28 49/119/28 29/75/28
f 20/58/17 33/84/17 19/54/17
f 17/48/13 18/51/13 20/57/13
f 24/62/14 22/60/14 21/59/14
f 17/49/15 36/90/15 40/99/15
f 23/61/14 27/71/14 28/74/14
f 22/60/14 26/68/14 25/65/14
f 46/112/16 26/66/16 28/72/16
f 54/128/15 25/63/15 26/67/15
f 43/105/17 28/73/17 27/69/17
f 50/120/18 27/70/18 25/64/18
f 21/59/14 25/65/14 27/71/14
f 18/52/16 40/98/16 30/76/16
f 19/55/18 33/83/18 36/91/18
f 24/62/14 28/74/14 26/68/14
f 39/97/19 41/102/19 38/95/19
f 41/101/20 42/103/20 37/92/20
f 37/92/21 42/103/21 40/99/21
f 29/75/22 31/80/22 41/102/22
f 31/79/23 32/81/23 42/104/23
f 42/104/24 32/81/24 30/76/24
f 53/127/25 38/95/25 35/88/25
f 38/96/26 37/93/26 34/85/26
f 34/85/27 37/93/27 36/91/27
f 49/119/28 35/88/28 31/80/28
f 35/89/29 34/86/29 32/82/29
f 32/82/30 34/86/30 33/84/30
f 46/113/21 47/114/21 56/133/21
f 47/114/20 48/116/20 55/130/20
f 55/132/19 48/118/19 39/97/19
f 43/106/24 44/107/24 47/115/24
f 44/107/23 45/109/23 48/117/23
f 48/118/22 45/111/22 29/75/22
f 54/129/27 56/134/27 52/125/27
f 56/134/26 55/131/26 51/122/26
f 51/124/25 55/132/25 53/127/25
f 50/121/30 52/126/30 44/108/30
f 52/126/29 51/123/29 45/110/29
f 45/111/28 51/124/28 49/119/28
f 20/58/17 30/77/17 33/84/17
